<svg xmlns="http://www.w3.org/2000/svg" viewBox="0 0 184.21 70.7"><defs><style>.cls-1{fill:#002e4b;}.cls-2{fill:#74777a;}.cls-3{fill:#dd4320;}</style></defs><title>Recurso 1</title><g id="Capa_2" data-name="Capa 2"><g id="Capa_1-2" data-name="Capa 1"><path class="cls-1" d="M18.59,35.51a20.56,20.56,0,0,1-7.39-1.29,17.41,17.41,0,0,1-5.88-3.64A16.89,16.89,0,0,1,1.41,25,17.75,17.75,0,0,1,0,17.85v-.09a17.61,17.61,0,0,1,1.38-7A17.93,17.93,0,0,1,5.19,5.15,17.38,17.38,0,0,1,11,1.37,19.48,19.48,0,0,1,18.34,0a21,21,0,0,1,7.83,1.32,21,21,0,0,1,6,3.66l-5.56,6.68a15,15,0,0,0-3.78-2.39,11.23,11.23,0,0,0-4.46-.83A8.07,8.07,0,0,0,15,9.17a8.54,8.54,0,0,0-2.75,2,9.64,9.64,0,0,0-1.86,3,9.88,9.88,0,0,0-.68,3.66v.1a10.57,10.57,0,0,0,.68,3.81,8.54,8.54,0,0,0,1.94,3,9.05,9.05,0,0,0,2.93,1.95,9.67,9.67,0,0,0,3.75.7A9.82,9.82,0,0,0,24.44,26V21.8H17.71V14.88h15.7V30.24A24.64,24.64,0,0,1,27,34,22,22,0,0,1,18.59,35.51Z"/><path class="cls-1" d="M53.34,8.44v9.32h-.78A7.19,7.19,0,0,0,47,19.9c-1.3,1.43-2,3.68-2,6.73v8.2H35.68V8.44H45v2.42S46.72,8.44,53.34,8.44Z"/><path class="cls-1" d="M65.39,35.41a8.57,8.57,0,0,1-6.64-2.58,10.11,10.11,0,0,1-2.38-7.12V8.44h9.31V22.73a4.8,4.8,0,0,0,1,3.32,3.43,3.43,0,0,0,2.69,1.12,3.61,3.61,0,0,0,2.72-1.12,4.63,4.63,0,0,0,1.09-3.32V8.44h9.31V34.83H73.2V32.38C71,35.94,65.39,35.41,65.39,35.41Z"/><path class="cls-1" d="M94.34,31.61v11H85V8.44h9.31V12"/><path class="cls-2" d="M114.72,52.66a9.72,9.72,0,0,1-4,.71c-4.25,0-7.43-2.68-7.43-7.65a7.5,7.5,0,0,1,7.88-7.92,8.15,8.15,0,0,1,3.58.68l-.5,1.58a7,7,0,0,0-3-.62c-3.53,0-5.88,2.26-5.88,6.22,0,3.71,2.13,6.06,5.77,6.06a7.81,7.81,0,0,0,3.2-.63Z"/><path class="cls-2" d="M120.11,53.37c-2.91,0-5.19-2.15-5.19-5.57,0-3.62,2.4-5.75,5.37-5.75s5.21,2.26,5.21,5.55c0,4-2.79,5.77-5.37,5.77Zm.07-1.47c1.88,0,3.29-1.77,3.29-4.23,0-1.84-.92-4.14-3.25-4.14s-3.31,2.15-3.31,4.21c0,2.37,1.35,4.16,3.25,4.16Z"/><path class="cls-2" d="M126.87,45.23c0-1.14-.05-2-.09-2.93h1.72l.09,1.75h.07a3.74,3.74,0,0,1,3.42-2,3.2,3.2,0,0,1,3,2.17h0a4.38,4.38,0,0,1,1.23-1.4,3.61,3.61,0,0,1,2.37-.77c1.46,0,3.58.94,3.58,4.7v6.38h-1.92V47c0-2.1-.78-3.33-2.35-3.33a2.58,2.58,0,0,0-2.35,1.76,3.48,3.48,0,0,0-.15,1v6.71h-1.93V46.64c0-1.74-.76-3-2.26-3a2.71,2.71,0,0,0-2.43,2,2.55,2.55,0,0,0-.16,1v6.54h-1.92Z"/><path class="cls-2" d="M145.52,48.05a3.45,3.45,0,0,0,3.69,3.76,7.5,7.5,0,0,0,3-.54l.35,1.39a8.86,8.86,0,0,1-3.62.69c-3.31,0-5.32-2.21-5.32-5.46s1.94-5.86,5.1-5.86c3.53,0,4.45,3.11,4.45,5.1a5.46,5.46,0,0,1-.07.94Zm5.75-1.41c0-1.23-.52-3.2-2.71-3.2-2,0-2.86,1.83-3,3.2Z"/><path class="cls-2" d="M154.51,45.68c0-1.28,0-2.37-.09-3.38h1.72l.09,2.13h.07a3.27,3.27,0,0,1,3-2.38,2.26,2.26,0,0,1,.53.07V44a4.75,4.75,0,0,0-.69-.05,2.76,2.76,0,0,0-2.64,2.51,6.79,6.79,0,0,0-.07.94v5.77h-2Z"/><path class="cls-2" d="M168.27,52.75a7.78,7.78,0,0,1-3.11.62c-3.27,0-5.39-2.21-5.39-5.55a5.52,5.52,0,0,1,5.81-5.77,6.19,6.19,0,0,1,2.73.59l-.45,1.49a4.88,4.88,0,0,0-2.28-.51c-2.48,0-3.82,1.86-3.82,4.12a3.71,3.71,0,0,0,3.76,4,5.59,5.59,0,0,0,2.41-.51Z"/><path class="cls-2" d="M170.39,40.31a1.27,1.27,0,1,1,1.3-1.27,1.22,1.22,0,0,1-1.3,1.27Zm-.94,12.82V42.3h2V53.13Z"/><path class="cls-2" d="M178,53.37c-2.91,0-5.19-2.15-5.19-5.57,0-3.62,2.4-5.75,5.37-5.75s5.21,2.26,5.21,5.55c0,4-2.79,5.77-5.37,5.77ZM178,51.9c1.88,0,3.29-1.77,3.29-4.23,0-1.84-.92-4.14-3.25-4.14s-3.31,2.15-3.31,4.21c0,2.37,1.35,4.16,3.25,4.16Z"/><path class="cls-2" d="M129.17,63.39h-5.83v5.43h6.53v1.63h-8.5V55.38h8.16V57h-6.19v4.77h5.83Z"/><path class="cls-2" d="M132.13,59.63l1.54,2.3c.4.63.74,1.17,1.09,1.77h.07c.36-.63.72-1.18,1.1-1.77l1.5-2.3h2.14l-3.69,5.23,3.78,5.59h-2.23L135.84,68c-.43-.63-.78-1.23-1.16-1.88h-.05c-.36.65-.74,1.23-1.14,1.88l-1.57,2.43h-2.17l3.85-5.52-3.67-5.3Z"/><path class="cls-2" d="M143.1,57v2.59h2.82v1.5H143.1V67c0,1.34.38,2.1,1.48,2.1a3.61,3.61,0,0,0,1.14-.14l.09,1.5a5.18,5.18,0,0,1-1.74.27,2.8,2.8,0,0,1-2.13-.83,4.19,4.19,0,0,1-.76-2.84v-5.9H139.5v-1.5h1.68v-2Z"/><path class="cls-2" d="M148,65.38a3.46,3.46,0,0,0,3.7,3.76,7.44,7.44,0,0,0,3-.54l.36,1.39a8.86,8.86,0,0,1-3.62.69c-3.31,0-5.33-2.22-5.33-5.46s2-5.86,5.1-5.86c3.54,0,4.45,3.11,4.45,5.1a5.65,5.65,0,0,1-.06.94ZM153.75,64c0-1.23-.51-3.2-2.7-3.2-2,0-2.87,1.83-3,3.2Z"/><path class="cls-2" d="M157,63c0-1.28,0-2.37-.09-3.38h1.72l.09,2.13h.07a3.26,3.26,0,0,1,3-2.38,2.28,2.28,0,0,1,.54.07v1.84a4.75,4.75,0,0,0-.69,0A2.76,2.76,0,0,0,159,63.75a5.49,5.49,0,0,0-.07.93v5.77h-2Z"/><path class="cls-2" d="M164.2,57.64a1.27,1.27,0,0,1,0-2.53,1.21,1.21,0,0,1,1.25,1.25,1.23,1.23,0,0,1-1.27,1.28Zm-.94,12.81V59.63h2V70.45Z"/><path class="cls-2" d="M171.78,70.7c-2.91,0-5.19-2.15-5.19-5.57,0-3.62,2.39-5.75,5.37-5.75s5.21,2.26,5.21,5.55c0,4-2.8,5.77-5.37,5.77Zm.06-1.47c1.88,0,3.29-1.77,3.29-4.23,0-1.84-.92-4.14-3.24-4.14s-3.31,2.15-3.31,4.21c0,2.37,1.34,4.16,3.24,4.16Z"/><path class="cls-2" d="M178.55,63c0-1.28,0-2.37-.09-3.38h1.73l.09,2.13h.06a3.27,3.27,0,0,1,3-2.38,2.35,2.35,0,0,1,.54.07v1.84a5,5,0,0,0-.7,0,2.75,2.75,0,0,0-2.63,2.51,5.49,5.49,0,0,0-.07.93v5.77h-2Z"/><path class="cls-1" d="M154,21.37h16.39V13.9H154V8.73h18.1v-8H144.66V14.8a12.21,12.21,0,0,1,.74,1.44,13.21,13.21,0,0,1,1.08,5.32v.1a13,13,0,0,1-1.82,6.74v6.43h27.66v-8H154Z"/><rect class="cls-1" x="174.89" y="11.11" width="9.32" height="23.72"/><rect class="cls-1" x="174.89" y="0.68" width="9.32" height="8.04"/><path class="cls-3" d="M129.68,35.46a15.51,15.51,0,0,1-5.83-1.07,14.4,14.4,0,0,1-4.61-2.95,13.27,13.27,0,0,1-4.1-9.69v-.09a13.19,13.19,0,0,1,1.1-5.34,13.48,13.48,0,0,1,3.05-4.39,14.35,14.35,0,0,1,4.63-3,15.36,15.36,0,0,1,5.86-1.1A15.21,15.21,0,0,1,135.61,9a14.88,14.88,0,0,1,4.6,3,13.18,13.18,0,0,1,3,4.34,13.38,13.38,0,0,1,1.07,5.32v.1a13.09,13.09,0,0,1-1.1,5.34,13.56,13.56,0,0,1-3,4.39,14.85,14.85,0,0,1-4.64,3A15.34,15.34,0,0,1,129.68,35.46Zm.1-7.9a5.48,5.48,0,0,0,2.29-.46,5.12,5.12,0,0,0,1.73-1.26A5.76,5.76,0,0,0,134.9,24a6.42,6.42,0,0,0,.39-2.23v-.09a6.16,6.16,0,0,0-.42-2.28,5.44,5.44,0,0,0-1.17-1.86,5.87,5.87,0,0,0-1.78-1.28,5.2,5.2,0,0,0-2.24-.48,5.45,5.45,0,0,0-2.29.46,4.91,4.91,0,0,0-1.74,1.25,5.79,5.79,0,0,0-1.09,1.87,6.18,6.18,0,0,0-.39,2.22v.1a6.14,6.14,0,0,0,.41,2.27,5.76,5.76,0,0,0,1.17,1.86,5.89,5.89,0,0,0,1.78,1.29A5.25,5.25,0,0,0,129.78,27.56Z"/><path class="cls-1" d="M112.75,21.75v-.09a13.19,13.19,0,0,1,1.1-5.34,13.6,13.6,0,0,1,1.24-2.25,13,13,0,0,0-1.83-2.17,14.93,14.93,0,0,0-4.61-3,15.14,15.14,0,0,0-5.83-1.1A15.35,15.35,0,0,0,97,9a14.35,14.35,0,0,0-4.63,3,13.48,13.48,0,0,0-3,4.39,13.19,13.19,0,0,0-1.1,5.34v.09a13.27,13.27,0,0,0,4.1,9.69,14.29,14.29,0,0,0,4.61,2.95,15.51,15.51,0,0,0,5.83,1.07,15.34,15.34,0,0,0,5.85-1.09,14.69,14.69,0,0,0,4.63-3A14.15,14.15,0,0,0,115,29.25a14.39,14.39,0,0,1-1.2-2.18A13.38,13.38,0,0,1,112.75,21.75Zm-4.41,0A6.42,6.42,0,0,1,108,24a5.76,5.76,0,0,1-1.1,1.86,5.12,5.12,0,0,1-1.73,1.26,5.53,5.53,0,0,1-2.3.46,5.2,5.2,0,0,1-2.24-.48,5.89,5.89,0,0,1-1.78-1.29,5.44,5.44,0,0,1-1.17-1.86,6.14,6.14,0,0,1-.42-2.27v-.1a6.41,6.41,0,0,1,.39-2.22,5.81,5.81,0,0,1,1.1-1.87,5,5,0,0,1,1.73-1.25,5.53,5.53,0,0,1,2.3-.46,5.2,5.2,0,0,1,2.24.48,5.87,5.87,0,0,1,1.78,1.28,5.76,5.76,0,0,1,1.17,1.86,6.16,6.16,0,0,1,.42,2.28Z"/></g></g></svg>